<svg xmlns="http://www.w3.org/2000/svg" xmlns:xlink="http://www.w3.org/1999/xlink" viewBox="0 0 459.83 618.94"><defs><style>.cls-1{fill:url(#linear-gradient);}.cls-2{fill:none;stroke:#231f20;stroke-miterlimit:10;}.cls-3{fill:url(#linear-gradient-2);}.cls-4{fill:url(#linear-gradient-3);}.cls-5{fill:url(#linear-gradient-4);}.cls-6{fill:url(#linear-gradient-5);}.cls-7{fill:url(#linear-gradient-6);}.cls-8{fill:url(#linear-gradient-7);}.cls-9{fill:url(#linear-gradient-8);}.cls-10{fill:url(#linear-gradient-9);}.cls-11{fill:url(#linear-gradient-10);}.cls-12{fill:url(#linear-gradient-11);}.cls-13{fill:url(#linear-gradient-12);}.cls-14{fill:url(#linear-gradient-13);}.cls-15{fill:url(#linear-gradient-14);}.cls-16{fill:url(#linear-gradient-15);}.cls-17{fill:url(#linear-gradient-16);}.cls-18{fill:url(#linear-gradient-17);}.cls-19{fill:url(#linear-gradient-18);}.cls-20{fill:url(#linear-gradient-19);}.cls-21{fill:url(#linear-gradient-20);}.cls-22{fill:url(#linear-gradient-21);}</style><linearGradient id="linear-gradient" x1="134.13" y1="444.83" x2="396.21" y2="500.59" gradientUnits="userSpaceOnUse"><stop offset="0.04" stop-color="#f1f2f2"/><stop offset="0.2" stop-color="#d2bea9"/><stop offset="0.23" stop-color="#c5a98c"/><stop offset="0.27" stop-color="#b99572"/><stop offset="0.3" stop-color="#b0875f"/><stop offset="0.34" stop-color="#ab7f54"/><stop offset="0.39" stop-color="#a97c50"/><stop offset="0.63" stop-color="#754c29"/><stop offset="0.82" stop-color="#603913"/><stop offset="0.93" stop-color="#3c2415"/></linearGradient><linearGradient id="linear-gradient-2" x1="223.76" y1="168.76" x2="342.24" y2="181.24" gradientUnits="userSpaceOnUse"><stop offset="0" stop-color="#fff"/><stop offset="0.6" stop-color="#006032"/></linearGradient><linearGradient id="linear-gradient-3" x1="114.17" y1="174.21" x2="215.97" y2="184.93" gradientUnits="userSpaceOnUse"><stop offset="0" stop-color="#fff"/><stop offset="0.7" stop-color="#004b23"/></linearGradient><linearGradient id="linear-gradient-4" x1="135.66" y1="54.64" x2="257.06" y2="67.42" gradientUnits="userSpaceOnUse"><stop offset="0" stop-color="#fff"/><stop offset="0.7" stop-color="#008142"/></linearGradient><linearGradient id="linear-gradient-5" x1="263.66" y1="60.96" x2="361.73" y2="71.29" gradientUnits="userSpaceOnUse"><stop offset="0" stop-color="#fff"/><stop offset="0.65" stop-color="#39b54a"/></linearGradient><linearGradient id="linear-gradient-6" x1="263.58" y1="267.67" x2="334.04" y2="275.09" gradientUnits="userSpaceOnUse"><stop offset="0" stop-color="#fff"/><stop offset="0.5" stop-color="#008142"/></linearGradient><linearGradient id="linear-gradient-7" x1="187.93" y1="296.63" x2="264.12" y2="304.65" gradientUnits="userSpaceOnUse"><stop offset="0" stop-color="#fff"/><stop offset="0.6" stop-color="#00a651"/></linearGradient><linearGradient id="linear-gradient-8" x1="419.5" y1="196.77" x2="459.72" y2="201.01" gradientUnits="userSpaceOnUse"><stop offset="0" stop-color="#fff"/><stop offset="0.4" stop-color="#00a651"/></linearGradient><linearGradient id="linear-gradient-9" x1="368.11" y1="71.12" x2="408.33" y2="75.35" gradientUnits="userSpaceOnUse"><stop offset="0" stop-color="#fff"/><stop offset="0.5" stop-color="#2bb673"/></linearGradient><linearGradient id="linear-gradient-10" x1="203.32" y1="232.4" x2="243.54" y2="236.64" gradientUnits="userSpaceOnUse"><stop offset="0" stop-color="#fff"/><stop offset="0.6" stop-color="#009444"/></linearGradient><linearGradient id="linear-gradient-11" x1="31.87" y1="315.32" x2="64.48" y2="318.75" gradientUnits="userSpaceOnUse"><stop offset="0" stop-color="#fff"/><stop offset="0.75" stop-color="#004b23"/></linearGradient><linearGradient id="linear-gradient-12" x1="387.58" y1="305.08" x2="420.19" y2="308.52" gradientUnits="userSpaceOnUse"><stop offset="0" stop-color="#fff"/><stop offset="0.4" stop-color="#8dc63f"/></linearGradient><linearGradient id="linear-gradient-13" x1="97.59" y1="64.41" x2="130.2" y2="67.85" gradientUnits="userSpaceOnUse"><stop offset="0" stop-color="#fff"/><stop offset="0.75" stop-color="#6e9e75"/></linearGradient><linearGradient id="linear-gradient-14" x1="19.47" y1="140.54" x2="52.08" y2="143.97" gradientUnits="userSpaceOnUse"><stop offset="0" stop-color="#fff"/><stop offset="0.75" stop-color="#8dc63f"/></linearGradient><linearGradient id="linear-gradient-15" x1="333.81" y1="309.77" x2="376.4" y2="314.26" gradientUnits="userSpaceOnUse"><stop offset="0" stop-color="#fff"/><stop offset="0.4" stop-color="#6e9e75"/></linearGradient><linearGradient id="linear-gradient-16" x1="0.15" y1="268.51" x2="54.7" y2="274.25" gradientUnits="userSpaceOnUse"><stop offset="0" stop-color="#fff"/><stop offset="0.75" stop-color="#00a651"/></linearGradient><linearGradient id="linear-gradient-17" x1="50.17" y1="345.41" x2="166.17" y2="370.11" gradientTransform="translate(-23.76 -60.07) rotate(-6.01)" xlink:href="#linear-gradient-13"/><linearGradient id="linear-gradient-18" x1="52.38" y1="118.02" x2="129.12" y2="126.1" gradientUnits="userSpaceOnUse"><stop offset="0" stop-color="#fff"/><stop offset="0.75" stop-color="#2bb673"/></linearGradient><linearGradient id="linear-gradient-19" x1="11.99" y1="196.87" x2="92.36" y2="205.34" gradientUnits="userSpaceOnUse"><stop offset="0" stop-color="#fff"/><stop offset="0.75" stop-color="#39b54a"/></linearGradient><linearGradient id="linear-gradient-20" x1="333.24" y1="238.79" x2="426.53" y2="248.61" gradientUnits="userSpaceOnUse"><stop offset="0" stop-color="#fff"/><stop offset="0.45" stop-color="#00a14b"/></linearGradient><linearGradient id="linear-gradient-21" x1="350.01" y1="139.37" x2="441.8" y2="149.04" gradientUnits="userSpaceOnUse"><stop offset="0" stop-color="#fff"/><stop offset="0.45" stop-color="#004b23"/></linearGradient></defs><g id="Layer_2" data-name="Layer 2"><g id="Layer_2-2" data-name="Layer 2"><path class="cls-1" d="M155.65,343.68a152.11,152.11,0,0,0,56.3,6.51,162.32,162.32,0,0,0,45-10.09c16.22-6.29,21.66-11.64,39.21-17.19a148.82,148.82,0,0,1,30.47-6.23c-14.28,14.4-57,61.12-53.83,121.91,1.39,26.62,11.26,50.06,17.84,65.67,3.57,8.49,16.61,38.13,43.8,70.16a286.49,286.49,0,0,0,38.14,37.26c-12.67,1.17-30.7,2.69-52.39,4-49,3.06-83.24,3.2-91.26,3.21-25.59.05-42.92,0-67-2.29-17.75-1.72-32.53-4-43.11-6a215.21,215.21,0,0,0,44-50.91,211.59,211.59,0,0,0,31.18-93.09c1.53-19,3.56-48.48-11-81.63A147.2,147.2,0,0,0,155.65,343.68Z"/></g><g id="Layer_1-2" data-name="Layer 1"><path class="cls-2" d="M260.25,613.82a362.53,362.53,0,0,1-20.64-69.12,372.66,372.66,0,0,1-6.2-52.26"/><path class="cls-2" d="M213.49,611.68a254.08,254.08,0,0,0,11.06-43c3.84-23.25,3.71-42.38,3.56-56.12"/><path class="cls-2" d="M287,616.68a316.14,316.14,0,0,1-41.87-100.47"/><circle class="cls-3" cx="283" cy="175" r="59.57"/><circle class="cls-4" cx="165.07" cy="179.57" r="51.17"/><circle class="cls-5" cx="196.36" cy="61.03" r="61.03"/><circle class="cls-6" cx="312.7" cy="66.13" r="49.3"/><circle class="cls-7" cx="298.81" cy="271.38" r="35.42"/><circle class="cls-8" cx="226.03" cy="300.64" r="38.3"/><circle class="cls-9" cx="439.61" cy="198.89" r="20.22"/><circle class="cls-10" cx="388.22" cy="73.23" r="20.22"/><circle class="cls-11" cx="223.43" cy="234.52" r="20.22"/><circle class="cls-12" cx="48.17" cy="317.03" r="16.39"/><circle class="cls-13" cx="403.88" cy="306.8" r="16.39"/><circle class="cls-14" cx="113.9" cy="66.13" r="16.39"/><circle class="cls-15" cx="35.77" cy="142.26" r="16.39"/><circle class="cls-16" cx="355.1" cy="312.01" r="21.41"/><circle class="cls-17" cx="27.42" cy="271.38" r="27.42"/><circle class="cls-18" cx="121.29" cy="284.39" r="59.29"/><circle class="cls-19" cx="90.75" cy="122.06" r="38.58"/><circle class="cls-20" cx="52.18" cy="201.1" r="40.4"/><circle class="cls-21" cx="379.89" cy="243.7" r="46.9"/><circle class="cls-22" cx="395.9" cy="144.2" r="46.14"/><path class="cls-2" d="M231.92,422.32a198.42,198.42,0,0,1,13.16-74"/><path class="cls-2" d="M246.84,422.7A147.87,147.87,0,0,1,260,362.41"/><path class="cls-2" d="M314.22,613.82a404.16,404.16,0,0,1-41.88-62.09,415,415,0,0,1-25.51-56.16"/><path class="cls-2" d="M340.24,611.68a377.68,377.68,0,0,1-33.53-42.33c-15.55-22.83-29.71-43.6-38.77-74.7a206.68,206.68,0,0,1-6.42-84.84,203.05,203.05,0,0,1,26.1-75.21"/><path class="cls-2" d="M372.57,611.68A316.64,316.64,0,0,1,328.26,567C313,548.09,294.93,520.7,284,485.93c-8.1-25.66-16.75-53.1-8.2-88.15,9.12-37.42,33.31-64.89,50.87-81.1"/><path class="cls-2" d="M221.44,422.05a181.61,181.61,0,0,0-4.9-36.55,183,183,0,0,0-11-32.2"/><path class="cls-2" d="M173.53,613.82a284.85,284.85,0,0,0,27.41-49.72c11.31-26.47,15.43-47.32,20.5-73.83"/><path class="cls-2" d="M142.54,613.82a166.83,166.83,0,0,0,31-36.86c6.72-10.7,21.76-35.17,28.92-73.9a236.9,236.9,0,0,0-1.39-92c-6.4-29.52-17.14-50.25-24.12-61.77"/><path class="cls-2" d="M121.29,611.68a268.51,268.51,0,0,0,33.13-40.57,245.31,245.31,0,0,0,33.13-73.67c6.06-23.31,12.53-48.24,6.14-80.08-6.83-34-24.92-58.95-38-73.68"/><path class="cls-2" d="M230.17,464.2c-1.22-15.69-.43-19.54.66-19.75,1.52-.29,4.39,6.43,5.49,12.55,1.25,7,1,17.46-2.62,18.51-3.39,1-8.91-6.56-11.47-12.88-3-7.4-5-20.77,2.22-26a14,14,0,0,1,14.49-.4c13.87,8.35,9.94,46.84-.81,50.11-7.62,2.31-21.51-12.2-24.55-28-.83-4.33-3.84-16.73,4-25.36,1-1.11,6.93-7.39,14.29-6.64,13.51,1.37,22.72,25.45,22.41,44.24a56.22,56.22,0,0,1-1.71,12.8"/></g></g></svg>